<?xml version="1.0" standalone="no"?>
<!DOCTYPE svg PUBLIC "-//W3C//DTD SVG 20010904//EN"
 "http://www.w3.org/TR/2001/REC-SVG-20010904/DTD/svg10.dtd">
<svg version="1.0" xmlns="http://www.w3.org/2000/svg"
 width="410.000000pt" height="410.000000pt" viewBox="0 0 410.000000 410.000000"
 preserveAspectRatio="xMidYMid meet">
<metadata>
Created by potrace 1.11, written by Peter Selinger 2001-2013
</metadata>
<g transform="translate(0.000000,410.000000) scale(0.100000,-0.100000)"
fill="#000000" stroke="none">
<path d="M1416 4078 c-8 -13 -13 -32 -11 -43 2 -11 4 -23 4 -26 1 -3 12 -11
26 -17 61 -28 116 47 67 91 -27 24 -69 21 -86 -5z"/>
<path d="M1567 3932 c-34 -38 -10 -92 40 -92 54 0 78 53 44 94 -18 22 -64 20
-84 -2z"/>
<path d="M1710 3931 c-14 -26 -13 -64 2 -79 17 -17 73 -15 88 3 7 8 13 26 13
40 0 36 -21 55 -59 55 -23 0 -37 -6 -44 -19z"/>
<path d="M1595 3803 c-68 -16 -53 -113 18 -113 28 0 57 32 57 62 0 16 -37 59
-49 57 -3 -1 -15 -3 -26 -6z"/>
<path d="M1721 3794 c-26 -19 -28 -71 -3 -90 39 -30 95 -7 95 40 0 50 -52 78
-92 50z"/>
<path d="M2910 3797 c-50 -25 -32 -107 24 -107 56 0 80 66 36 102 -26 21 -28
21 -60 5z"/>
<path d="M1571 3641 c-26 -26 -27 -55 -1 -81 11 -11 29 -20 40 -20 25 0 60 34
60 58 0 49 -65 77 -99 43z"/>
<path d="M1722 3644 c-42 -29 -18 -104 34 -104 56 1 79 72 35 107 -22 17 -42
16 -69 -3z"/>
<path d="M1860 3633 c-25 -32 -25 -34 1 -67 36 -46 99 -23 99 36 0 53 -66 74
-100 31z"/>
<path d="M2012 3640 c-12 -12 -22 -30 -22 -40 0 -26 34 -60 60 -60 11 0 29 9
40 20 11 11 20 29 20 40 0 25 -34 60 -58 60 -10 0 -28 -9 -40 -20z"/>
<path d="M2162 3644 c-44 -30 -16 -104 40 -104 29 0 60 41 53 70 -11 47 -53
63 -93 34z"/>
<path d="M2600 3640 c-11 -11 -20 -29 -20 -40 0 -11 9 -29 20 -40 11 -11 29
-20 40 -20 11 0 29 9 40 20 11 11 20 29 20 40 0 11 -9 29 -20 40 -11 11 -29
20 -40 20 -11 0 -29 -9 -40 -20z"/>
<path d="M2752 3644 c-43 -30 -16 -104 38 -104 30 0 61 39 55 68 -8 48 -52 65
-93 36z"/>
<path d="M1414 3485 c-32 -49 15 -106 71 -85 38 14 47 66 17 93 -28 25 -69 21
-88 -8z"/>
<path d="M1564 3485 c-34 -52 10 -108 67 -85 58 24 42 110 -21 110 -20 0 -35
-8 -46 -25z"/>
<path d="M1716 3494 c-35 -34 -6 -104 42 -104 25 0 61 46 55 71 -11 47 -66 65
-97 33z"/>
<path d="M1866 3497 c-26 -19 -24 -67 4 -89 27 -22 39 -22 68 -2 15 10 22 25
22 46 0 50 -53 75 -94 45z"/>
<path d="M2006 3488 c-22 -30 -20 -54 5 -77 38 -35 98 -8 99 45 0 50 -76 73
-104 32z"/>
<path d="M2157 3492 c-10 -10 -17 -28 -17 -40 0 -32 37 -65 63 -58 12 3 25 6
28 6 4 0 12 13 19 30 10 25 10 34 -4 55 -20 30 -65 34 -89 7z"/>
<path d="M2313 3502 c-6 -4 -17 -20 -22 -35 -9 -24 -8 -31 14 -53 13 -13 31
-24 38 -24 20 0 54 31 61 56 12 40 -53 80 -91 56z"/>
<path d="M2456 3497 c-36 -26 -11 -107 33 -107 32 0 61 30 61 62 0 50 -53 75
-94 45z"/>
<path d="M2595 3486 c-33 -50 12 -108 68 -87 34 13 45 53 23 86 -22 34 -70 34
-91 1z"/>
<path d="M2747 3492 c-27 -29 -20 -74 13 -92 28 -15 77 6 85 37 14 58 -59 99
-98 55z"/>
<path d="M2896 3494 c-24 -24 -20 -71 8 -89 60 -40 124 48 67 92 -22 17 -57
16 -75 -3z"/>
<path d="M981 3346 c-28 -30 -26 -60 4 -84 39 -31 81 -12 90 41 9 48 -60 79
-94 43z"/>
<path d="M2044 3362 c-37 -6 -59 -38 -48 -70 23 -66 113 -55 114 14 0 27 -39
61 -66 56z"/>
<path d="M2318 3356 c-29 -14 -38 -76 -13 -96 38 -31 98 -5 98 44 0 48 -42 73
-85 52z"/>
<path d="M2622 3359 c-34 -13 -48 -53 -29 -82 22 -34 52 -39 82 -15 29 23 33
58 8 80 -28 24 -37 26 -61 17z"/>
<path d="M2762 3353 c-24 -12 -32 -22 -32 -42 0 -64 72 -88 106 -36 13 20 15
31 6 50 -17 37 -43 46 -80 28z"/>
<path d="M2899 3349 c-23 -23 -25 -72 -4 -89 21 -17 64 -16 82 3 18 18 20 61
4 81 -19 23 -61 26 -82 5z"/>
<path d="M3063 3359 c-21 -8 -41 -34 -41 -54 0 -39 49 -69 85 -52 65 29 22
131 -44 106z"/>
<path d="M1119 3336 c-24 -51 18 -104 68 -85 63 23 45 109 -23 109 -27 0 -37
-6 -45 -24z"/>
<path d="M1414 3335 c-14 -21 -15 -31 -5 -51 27 -59 110 -42 111 23 0 53 -76
73 -106 28z"/>
<path d="M1567 3342 c-24 -27 -21 -58 8 -80 56 -44 121 27 76 82 -18 22 -64
20 -84 -2z"/>
<path d="M1711 3346 c-7 -8 -11 -30 -9 -48 5 -57 72 -71 104 -22 13 20 14 27
2 51 -10 22 -21 29 -49 31 -22 2 -40 -2 -48 -12z"/>
<path d="M1860 3345 c-17 -21 -16 -64 3 -82 21 -21 68 -20 84 3 20 27 16 72
-6 84 -28 15 -67 12 -81 -5z"/>
<path d="M2148 3335 c-8 -18 -9 -35 -2 -53 8 -23 15 -27 49 -27 32 0 42 5 54
26 13 24 13 29 -2 53 -25 37 -82 37 -99 1z"/>
<path d="M2450 3345 c-43 -52 11 -120 73 -89 31 17 37 62 11 88 -19 20 -68 21
-84 1z"/>
<path d="M1000 3213 c-65 -23 -43 -119 27 -111 31 3 58 46 48 77 -4 14 -48 44
-58 40 -1 0 -9 -3 -17 -6z"/>
<path d="M1131 3204 c-44 -31 -15 -104 41 -104 45 0 70 54 41 89 -23 28 -55
33 -82 15z"/>
<path d="M1292 3210 c-25 -10 -42 -46 -34 -70 13 -39 68 -53 96 -24 24 23 20
70 -6 88 -25 18 -25 18 -56 6z"/>
<path d="M1427 3199 c-31 -23 -34 -45 -11 -77 30 -43 104 -20 104 32 0 52 -52
78 -93 45z"/>
<path d="M1571 3199 c-41 -38 -15 -99 42 -99 55 0 76 89 24 106 -38 13 -45 13
-66 -7z"/>
<path d="M1730 3207 c-31 -15 -39 -66 -15 -91 24 -24 70 -20 87 7 19 29 15 57
-13 79 -25 21 -27 21 -59 5z"/>
<path d="M1864 3194 c-18 -18 -23 -30 -19 -47 21 -69 115 -59 115 12 0 54 -57
75 -96 35z"/>
<path d="M2028 3213 c-9 -2 -22 -17 -28 -33 -10 -25 -10 -34 4 -55 20 -30 65
-34 89 -7 42 47 -1 110 -65 95z"/>
<path d="M2180 3213 c-63 -22 -45 -113 22 -113 29 0 44 14 53 51 5 21 1 31
-21 48 -28 22 -30 23 -54 14z"/>
<path d="M2311 3204 c-25 -18 -28 -65 -5 -88 48 -48 130 20 87 73 -23 28 -55
33 -82 15z"/>
<path d="M2460 3202 c-27 -22 -31 -51 -12 -79 29 -46 102 -18 102 39 0 46 -54
69 -90 40z"/>
<path d="M2607 3199 c-31 -23 -34 -45 -11 -77 19 -27 64 -29 87 -4 49 54 -19
127 -76 81z"/>
<path d="M2770 3213 c-60 -21 -46 -113 18 -113 27 0 62 33 62 58 -1 36 -45 67
-80 55z"/>
<path d="M2901 3204 c-25 -18 -28 -65 -5 -88 34 -34 97 -10 97 38 0 50 -52 78
-92 50z"/>
<path d="M3045 3195 c-26 -26 -27 -52 -3 -82 15 -19 63 -16 81 5 20 22 22 65
5 80 -31 24 -57 23 -83 -3z"/>
<path d="M3214 3213 c-12 -2 -27 -15 -35 -29 -11 -22 -11 -30 2 -52 28 -51
109 -33 109 24 0 21 -36 66 -49 63 -3 -1 -15 -4 -27 -6z"/>
<path d="M837 3058 c-27 -22 -31 -60 -7 -86 24 -26 47 -28 78 -6 14 10 22 26
22 44 0 47 -56 76 -93 48z"/>
<path d="M981 3051 c-26 -26 -27 -55 -1 -81 51 -51 131 16 88 73 -22 28 -63
32 -87 8z"/>
<path d="M1132 3054 c-43 -30 -17 -104 36 -104 25 0 54 29 59 58 3 23 -31 62
-55 62 -10 0 -28 -7 -40 -16z"/>
<path d="M1277 3056 c-42 -32 -14 -105 39 -106 50 0 73 76 32 104 -27 19 -47
20 -71 2z"/>
<path d="M1419 3049 c-15 -15 -19 -28 -14 -47 11 -49 52 -65 93 -36 44 31 16
104 -40 104 -10 0 -27 -9 -39 -21z"/>
<path d="M1570 3050 c-38 -38 -14 -100 38 -100 28 0 62 34 62 60 0 11 -9 29
-20 40 -11 11 -29 20 -40 20 -11 0 -29 -9 -40 -20z"/>
<path d="M1722 3054 c-42 -29 -18 -104 34 -104 27 0 41 12 53 42 8 22 6 31
-10 52 -23 30 -45 33 -77 10z"/>
<path d="M1868 3056 c-26 -19 -29 -61 -7 -85 24 -26 60 -27 82 -3 49 54 -18
132 -75 88z"/>
<path d="M2012 3050 c-27 -26 -28 -54 -2 -80 24 -24 48 -25 78 -4 28 19 29 57
2 84 -26 26 -50 25 -78 0z"/>
<path d="M2160 3050 c-51 -51 16 -131 73 -87 28 21 32 62 8 86 -26 26 -55 27
-81 1z"/>
<path d="M2313 3055 c-43 -30 -19 -105 33 -105 25 0 38 10 54 39 10 20 9 27
-7 50 -24 32 -51 37 -80 16z"/>
<path d="M2458 3057 c-26 -20 -27 -66 -2 -91 21 -21 57 -20 77 2 48 53 -18
132 -75 89z"/>
<path d="M2600 3050 c-11 -11 -20 -29 -20 -40 0 -11 9 -29 20 -40 11 -11 29
-20 40 -20 11 0 29 9 40 20 11 11 20 29 20 40 0 11 -9 29 -20 40 -11 11 -29
20 -40 20 -11 0 -29 -9 -40 -20z"/>
<path d="M2752 3054 c-27 -19 -29 -64 -4 -87 54 -49 132 28 82 81 -24 26 -47
28 -78 6z"/>
<path d="M2913 3060 c-41 -17 -48 -55 -15 -92 22 -25 57 -22 80 7 22 28 19 62
-7 82 -19 14 -28 15 -58 3z"/>
<path d="M3059 3063 c-22 -5 -37 -42 -29 -73 14 -59 110 -43 110 19 0 43 -31
64 -81 54z"/>
<path d="M842 2913 c-18 -7 -32 -46 -25 -71 4 -18 41 -42 63 -42 6 0 19 9 30
20 49 49 -2 119 -68 93z"/>
<path d="M977 2902 c-37 -41 -2 -107 51 -97 51 9 68 59 32 95 -25 25 -62 26
-83 2z"/>
<path d="M1127 2902 c-25 -28 -21 -69 8 -88 29 -19 60 -11 81 20 37 57 -44
118 -89 68z"/>
<path d="M1276 2905 c-26 -19 -24 -65 4 -87 27 -22 39 -22 68 -2 42 29 18 105
-34 104 -10 0 -27 -7 -38 -15z"/>
<path d="M1415 2896 c-31 -46 8 -103 60 -90 45 11 60 67 27 97 -27 25 -69 21
-87 -7z"/>
<path d="M1564 2895 c-21 -32 -11 -73 21 -85 57 -22 104 35 70 86 -21 33 -69
33 -91 -1z"/>
<path d="M1716 2904 c-34 -33 -13 -94 35 -101 30 -5 72 42 64 70 -14 45 -68
62 -99 31z"/>
<path d="M1872 2913 c-24 -10 -34 -53 -18 -79 21 -31 52 -39 81 -20 61 40 6
127 -63 99z"/>
<path d="M2004 2895 c-33 -51 13 -107 70 -86 39 15 49 66 18 94 -28 25 -69 21
-88 -8z"/>
<path d="M2157 2902 c-36 -39 -11 -95 42 -95 55 0 79 55 41 93 -25 25 -62 26
-83 2z"/>
<path d="M2308 2903 c-28 -33 -29 -53 -3 -79 13 -13 31 -24 38 -24 27 0 60 35
60 65 0 49 -63 74 -95 38z"/>
<path d="M2450 2900 c-34 -34 -2 -101 45 -95 35 3 55 23 55 55 0 53 -61 79
-100 40z"/>
<path d="M2595 2896 c-33 -50 13 -108 69 -87 39 15 49 66 18 94 -27 25 -69 21
-87 -7z"/>
<path d="M2747 2902 c-32 -35 -14 -89 33 -97 31 -5 57 13 65 47 13 53 -62 90
-98 50z"/>
<path d="M2897 2902 c-25 -28 -21 -69 8 -88 29 -19 60 -11 81 21 36 55 -45
115 -89 67z"/>
<path d="M3052 2913 c-22 -9 -33 -50 -21 -77 25 -53 109 -35 109 23 0 45 -43
72 -88 54z"/>
<path d="M1010 2772 c-52 -17 -65 -69 -25 -100 33 -26 70 -18 85 18 18 44 -20
96 -60 82z"/>
<path d="M2180 2767 c-32 -17 -44 -39 -36 -71 12 -48 74 -54 103 -9 30 45 -19
104 -67 80z"/>
<path d="M2762 2763 c-24 -12 -32 -22 -32 -42 0 -34 10 -48 43 -60 24 -9 31
-8 53 14 50 50 1 119 -64 88z"/>
<path d="M826 2748 c-9 -12 -16 -28 -16 -34 0 -19 34 -54 56 -58 28 -6 64 28
64 58 0 52 -75 76 -104 34z"/>
<path d="M1126 2754 c-26 -26 -20 -71 12 -88 35 -18 69 -5 82 30 22 56 -51
101 -94 58z"/>
<path d="M1273 2758 c-20 -25 -21 -58 -4 -79 19 -24 63 -28 86 -9 19 16 19 67
1 86 -18 17 -70 18 -83 2z"/>
<path d="M1419 2754 c-22 -27 -20 -54 5 -79 22 -22 28 -23 55 -14 61 21 49
109 -14 109 -18 0 -39 -7 -46 -16z"/>
<path d="M1567 2752 c-10 -10 -17 -27 -17 -38 1 -63 85 -78 111 -20 26 56 -53
104 -94 58z"/>
<path d="M1716 2754 c-23 -22 -20 -70 4 -87 23 -16 64 -12 81 9 15 18 15 60
-1 79 -16 20 -64 19 -84 -1z"/>
<path d="M1854 2746 c-13 -21 -14 -29 -2 -52 27 -56 100 -47 106 12 6 61 -70
90 -104 40z"/>
<path d="M2006 2748 c-23 -32 -20 -54 9 -77 53 -41 116 16 85 75 -18 32 -72
34 -94 2z"/>
<path d="M2308 2759 c-21 -12 -25 -71 -5 -86 24 -20 57 -21 78 -4 24 19 28 63
9 86 -14 17 -57 19 -82 4z"/>
<path d="M2450 2755 c-43 -52 11 -120 73 -89 21 12 27 21 27 49 0 24 -6 37
-19 45 -28 14 -67 12 -81 -5z"/>
<path d="M2595 2746 c-32 -49 10 -104 65 -84 29 11 40 25 40 54 0 51 -77 73
-105 30z"/>
<path d="M2896 2757 c-42 -31 -5 -111 46 -102 46 9 67 65 38 100 -15 19 -60
19 -84 2z"/>
<path d="M3041 2756 c-22 -27 -21 -57 4 -82 21 -21 28 -22 52 -13 15 5 31 16
35 22 13 20 9 55 -8 71 -19 20 -68 21 -83 2z"/>
<path d="M3186 2748 c-23 -32 -20 -54 10 -77 57 -45 130 34 76 82 -26 24 -68
21 -86 -5z"/>
<path d="M843 2618 c-50 -24 -31 -108 26 -108 63 0 84 83 26 106 -21 8 -37 8
-52 2z"/>
<path d="M981 2609 c-25 -23 -27 -47 -5 -77 30 -43 105 -16 104 38 -1 46 -64
71 -99 39z"/>
<path d="M1140 2617 c-17 -8 -26 -22 -28 -43 -4 -39 19 -64 57 -64 54 0 75 57
36 96 -28 28 -31 28 -65 11z"/>
<path d="M1291 2617 c-53 -27 -42 -99 15 -105 19 -2 38 3 48 13 24 24 20 71
-6 89 -27 19 -27 19 -57 3z"/>
<path d="M1425 2609 c-29 -23 -32 -45 -9 -77 29 -42 104 -18 104 34 0 51 -53
75 -95 43z"/>
<path d="M1595 2622 c-44 -8 -60 -66 -27 -95 27 -25 69 -21 87 7 30 45 -6 99
-60 88z"/>
<path d="M1730 2617 c-32 -16 -41 -74 -14 -94 49 -35 115 7 94 61 -5 14 -18
30 -29 35 -24 13 -21 13 -51 -2z"/>
<path d="M1869 2611 c-24 -19 -29 -62 -9 -86 16 -20 64 -19 84 1 20 19 21 68
2 83 -24 20 -54 21 -77 2z"/>
<path d="M2028 2623 c-9 -2 -22 -17 -28 -33 -10 -25 -10 -34 4 -55 20 -30 65
-34 89 -7 41 45 -2 109 -65 95z"/>
<path d="M2160 2610 c-11 -11 -20 -31 -20 -43 0 -53 75 -77 104 -35 21 30 20
51 -3 72 -28 25 -59 28 -81 6z"/>
<path d="M2311 2614 c-25 -18 -28 -65 -5 -88 34 -34 97 -10 97 38 0 50 -52 78
-92 50z"/>
<path d="M2455 2605 c-25 -24 -26 -54 -4 -81 15 -19 64 -18 83 2 20 19 21 68
2 83 -27 22 -57 21 -81 -4z"/>
<path d="M2605 2609 c-29 -23 -32 -45 -9 -77 30 -43 104 -20 104 32 0 53 -52
78 -95 45z"/>
<path d="M2750 2607 c-40 -42 -10 -102 47 -95 53 6 69 88 20 104 -40 14 -48
13 -67 -9z"/>
<path d="M2906 2618 c-51 -28 -29 -107 30 -108 70 0 77 101 8 114 -11 2 -28 0
-38 -6z"/>
<path d="M3045 2606 c-38 -38 -16 -96 36 -96 58 0 82 72 34 104 -32 21 -42 20
-70 -8z"/>
<path d="M3204 2617 c-25 -13 -34 -27 -34 -53 0 -47 71 -72 103 -36 23 25 21
58 -3 79 -24 21 -41 24 -66 10z"/>
<path d="M550 2467 c-49 -24 -30 -107 25 -107 51 0 77 53 44 93 -23 30 -33 32
-69 14z"/>
<path d="M693 2465 c-30 -21 -34 -51 -11 -80 23 -29 58 -33 80 -7 25 29 28 50
9 73 -22 28 -51 33 -78 14z"/>
<path d="M837 2468 c-9 -7 -18 -26 -21 -41 -9 -54 61 -89 97 -49 48 53 -20
132 -76 90z"/>
<path d="M981 2461 c-26 -26 -27 -55 -1 -81 11 -11 29 -20 40 -20 25 0 60 34
60 58 0 49 -65 77 -99 43z"/>
<path d="M1132 2464 c-57 -39 -3 -123 63 -98 42 17 36 96 -9 108 -29 8 -29 8
-54 -10z"/>
<path d="M1288 2469 c-54 -31 -34 -108 28 -109 50 0 73 76 32 104 -26 18 -36
19 -60 5z"/>
<path d="M1440 2473 c-21 -7 -40 -34 -40 -55 0 -25 36 -58 63 -58 51 0 74 63
37 100 -20 20 -33 23 -60 13z"/>
<path d="M1570 2460 c-11 -11 -20 -28 -20 -38 0 -29 29 -62 56 -62 29 0 64 32
64 60 0 11 -9 29 -20 40 -11 11 -29 20 -40 20 -11 0 -29 -9 -40 -20z"/>
<path d="M1722 2464 c-42 -29 -18 -104 34 -104 62 1 80 80 24 110 -25 13 -32
13 -58 -6z"/>
<path d="M1873 2468 c-52 -25 -27 -107 33 -108 50 0 73 76 32 104 -26 18 -35
19 -65 4z"/>
<path d="M2010 2458 c-25 -28 -26 -52 0 -78 25 -25 62 -26 83 -2 23 25 21 58
-3 82 -26 26 -54 25 -80 -2z"/>
<path d="M2161 2461 c-25 -25 -27 -49 -5 -79 27 -39 87 -23 99 28 12 52 -56
89 -94 51z"/>
<path d="M2312 2464 c-56 -39 7 -134 64 -96 51 34 27 110 -36 112 -3 0 -16 -7
-28 -16z"/>
<path d="M2451 2453 c-33 -40 -7 -93 44 -93 51 0 74 75 33 104 -32 23 -54 20
-77 -11z"/>
<path d="M2620 2473 c-21 -7 -40 -34 -40 -55 0 -24 35 -58 60 -58 11 0 29 9
40 20 11 11 20 29 20 40 0 23 -34 60 -52 59 -7 0 -20 -3 -28 -6z"/>
<path d="M2760 2467 c-50 -25 -29 -107 27 -107 28 0 63 33 63 60 0 20 -36 60
-54 60 -6 0 -22 -6 -36 -13z"/>
<path d="M2902 2464 c-42 -29 -18 -104 34 -104 62 1 80 80 24 110 -25 13 -32
13 -58 -6z"/>
<path d="M3041 2453 c-33 -40 -7 -93 44 -93 51 0 74 75 33 104 -32 23 -54 20
-77 -11z"/>
<path d="M3210 2473 c-21 -7 -40 -34 -40 -55 0 -24 35 -58 60 -58 11 0 29 9
40 20 11 11 20 29 20 40 0 23 -34 60 -52 59 -7 0 -20 -3 -28 -6z"/>
<path d="M537 2312 c-10 -10 -17 -28 -17 -40 0 -22 32 -62 50 -62 18 0 60 23
61 34 0 6 2 19 4 29 5 24 -29 57 -58 57 -13 0 -31 -8 -40 -18z"/>
<path d="M686 2314 c-35 -34 -11 -104 36 -104 31 0 68 44 61 71 -12 46 -66 64
-97 33z"/>
<path d="M837 2317 c-27 -19 -30 -60 -6 -85 25 -27 53 -28 79 -2 52 52 -14
131 -73 87z"/>
<path d="M976 2308 c-29 -41 -13 -82 36 -93 19 -5 32 -1 47 14 26 26 27 55 1
81 -27 27 -65 26 -84 -2z"/>
<path d="M1127 2312 c-38 -42 -4 -111 47 -98 14 3 33 17 42 30 36 56 -45 117
-89 68z"/>
<path d="M1278 2317 c-19 -15 -25 -43 -14 -74 17 -53 106 -31 106 26 0 50 -53
77 -92 48z"/>
<path d="M1420 2310 c-26 -26 -25 -50 0 -78 26 -27 54 -28 80 -2 25 25 26 62
2 83 -25 23 -58 21 -82 -3z"/>
<path d="M1565 2306 c-21 -31 -13 -71 16 -87 29 -15 63 -4 79 27 33 61 -57
118 -95 60z"/>
<path d="M1717 2312 c-34 -37 -8 -102 41 -102 25 0 61 46 55 71 -11 48 -65 65
-96 31z"/>
<path d="M1873 2322 c-6 -4 -17 -20 -23 -36 -9 -25 -8 -32 11 -53 26 -27 46
-29 77 -7 56 39 -6 133 -65 96z"/>
<path d="M2010 2310 c-26 -26 -25 -54 2 -80 26 -24 64 -20 86 7 44 58 -36 125
-88 73z"/>
<path d="M2157 2312 c-23 -25 -21 -58 3 -82 35 -35 82 -18 95 32 13 53 -62 90
-98 50z"/>
<path d="M2307 2312 c-22 -24 -21 -65 1 -85 56 -50 129 34 76 87 -21 21 -57
20 -77 -2z"/>
<path d="M2451 2311 c-20 -20 -21 -28 -7 -68 17 -53 106 -31 106 26 0 54 -61
80 -99 42z"/>
<path d="M2600 2310 c-11 -11 -20 -29 -20 -40 0 -11 9 -29 20 -40 11 -11 29
-20 40 -20 27 0 60 35 60 63 0 51 -63 74 -100 37z"/>
<path d="M2747 2312 c-23 -25 -21 -58 3 -82 26 -26 54 -25 80 2 25 28 26 52 0
78 -25 25 -62 26 -83 2z"/>
<path d="M2898 2316 c-11 -8 -18 -26 -18 -44 0 -65 86 -80 109 -20 21 55 -44
100 -91 64z"/>
<path d="M3047 2318 c-27 -20 -30 -59 -5 -85 25 -27 45 -29 76 -7 42 29 18
104 -34 104 -11 0 -28 -6 -37 -12z"/>
<path d="M3192 2314 c-28 -19 -29 -57 -2 -84 26 -26 50 -25 78 0 27 26 28 54
2 80 -24 24 -48 25 -78 4z"/>
<path d="M2033 2179 c-63 -24 -50 -112 17 -112 52 0 80 63 43 95 -28 24 -37
26 -60 17z"/>
<path d="M536 2164 c-31 -31 -14 -85 31 -99 17 -4 29 1 47 19 26 25 28 55 5
82 -15 19 -64 18 -83 -2z"/>
<path d="M680 2165 c-7 -8 -12 -26 -12 -40 0 -72 101 -80 115 -9 9 50 -70 88
-103 49z"/>
<path d="M832 2168 c-24 -31 -23 -57 2 -83 22 -22 29 -23 53 -14 15 5 31 16
35 22 14 21 8 59 -9 73 -23 17 -68 18 -81 2z"/>
<path d="M976 2161 c-41 -45 13 -115 69 -89 32 14 40 40 23 75 -17 36 -66 43
-92 14z"/>
<path d="M1128 2169 c-22 -13 -24 -72 -3 -89 24 -20 67 -15 86 9 44 54 -21
117 -83 80z"/>
<path d="M1270 2165 c-33 -40 4 -109 52 -98 37 9 48 23 48 59 0 23 -6 37 -19
44 -28 15 -67 12 -81 -5z"/>
<path d="M1414 2155 c-19 -29 -11 -60 20 -81 57 -37 118 44 68 89 -28 25 -69
21 -88 -8z"/>
<path d="M1567 2162 c-10 -10 -17 -27 -17 -38 1 -63 85 -78 111 -20 26 56 -53
104 -94 58z"/>
<path d="M1716 2164 c-19 -19 -21 -68 -3 -82 30 -24 56 -23 81 2 26 25 28 55
5 82 -15 19 -64 18 -83 -2z"/>
<path d="M1862 2168 c-24 -31 -23 -57 2 -82 25 -26 55 -28 82 -5 19 15 18 64
-2 83 -19 19 -68 21 -82 4z"/>
<path d="M2157 2162 c-35 -39 -3 -106 45 -97 24 5 58 39 58 59 0 48 -71 74
-103 38z"/>
<path d="M2298 2152 c-14 -23 -15 -32 -5 -51 16 -31 48 -42 77 -28 54 28 40
100 -20 105 -30 2 -38 -2 -52 -26z"/>
<path d="M2452 2167 c-6 -7 -13 -25 -16 -40 -9 -50 57 -79 102 -44 17 13 15
62 -4 81 -19 19 -67 21 -82 3z"/>
<path d="M2594 2155 c-19 -29 -11 -60 21 -81 55 -36 115 45 67 89 -28 25 -69
21 -88 -8z"/>
<path d="M2740 2156 c-16 -32 -6 -70 22 -83 53 -24 104 35 73 83 -22 34 -77
33 -95 0z"/>
<path d="M2891 2161 c-26 -26 -15 -71 23 -89 23 -12 31 -11 50 2 29 18 37 47
22 78 -16 31 -67 37 -95 9z"/>
<path d="M3041 2166 c-23 -27 -21 -57 5 -82 25 -25 51 -26 82 -2 17 14 15 63
-4 82 -19 20 -68 21 -83 2z"/>
<path d="M3186 2158 c-19 -27 -20 -47 -3 -70 32 -41 107 -16 107 36 0 52 -75
76 -104 34z"/>
<path d="M3338 2166 c-35 -26 -17 -87 29 -101 32 -9 77 36 67 68 -3 12 -11 28
-16 35 -13 16 -58 15 -80 -2z"/>
<path d="M560 2033 c-63 -22 -47 -113 19 -113 53 0 75 57 37 95 -26 26 -30 27
-56 18z"/>
<path d="M692 2024 c-33 -23 -31 -80 3 -96 36 -16 77 0 86 34 13 51 -46 92
-89 62z"/>
<path d="M837 2020 c-43 -34 -21 -100 34 -100 55 0 79 60 39 100 -25 25 -41
25 -73 0z"/>
<path d="M995 2028 c-26 -15 -35 -28 -35 -54 0 -47 71 -72 103 -36 24 26 21
49 -8 77 -27 28 -32 29 -60 13z"/>
<path d="M1138 2026 c-42 -21 -36 -88 10 -104 35 -12 59 0 73 35 19 49 -34 93
-83 69z"/>
<path d="M1291 2027 c-31 -16 -42 -48 -27 -78 13 -27 54 -36 86 -19 29 15 28
73 -2 94 -27 19 -27 19 -57 3z"/>
<path d="M1424 2015 c-28 -28 -30 -42 -8 -73 19 -27 64 -29 87 -4 52 57 -25
131 -79 77z"/>
<path d="M1590 2032 c-40 -12 -52 -68 -22 -95 48 -44 117 3 92 62 -11 28 -40
42 -70 33z"/>
<path d="M1728 2026 c-29 -15 -36 -66 -12 -90 45 -46 125 15 90 68 -18 29 -47
37 -78 22z"/>
<path d="M1866 2017 c-37 -37 -18 -97 31 -97 42 0 63 18 63 54 0 35 -11 49
-47 60 -17 5 -29 1 -47 -17z"/>
<path d="M2032 2029 c-35 -13 -48 -53 -28 -84 30 -45 106 -25 106 28 0 42 -40
70 -78 56z"/>
<path d="M2180 2033 c-63 -22 -45 -113 22 -113 29 0 44 14 53 51 5 21 1 31
-21 48 -28 22 -30 23 -54 14z"/>
<path d="M2318 2026 c-29 -14 -36 -66 -13 -90 19 -19 68 -21 82 -3 43 54 -8
123 -69 93z"/>
<path d="M2454 2015 c-28 -28 -30 -42 -8 -73 31 -45 104 -19 104 37 0 52 -58
74 -96 36z"/>
<path d="M2605 2015 c-29 -28 -31 -42 -9 -73 29 -42 104 -18 104 34 0 25 -10
38 -37 53 -29 15 -30 15 -58 -14z"/>
<path d="M2770 2033 c-39 -14 -53 -69 -24 -97 23 -24 70 -20 88 6 22 31 20 45
-9 73 -25 26 -29 27 -55 18z"/>
<path d="M2913 2030 c-47 -19 -50 -81 -4 -104 67 -35 120 56 58 99 -24 17 -24
17 -54 5z"/>
<path d="M3045 2015 c-26 -26 -27 -52 -3 -82 13 -16 52 -17 79 -3 22 12 27 71
7 88 -31 24 -57 23 -83 -3z"/>
<path d="M3194 2015 c-28 -28 -30 -42 -8 -73 22 -31 69 -30 90 4 39 59 -32
119 -82 69z"/>
<path d="M3360 2033 c-44 -16 -53 -72 -15 -101 29 -23 59 -19 80 11 21 30 19
44 -10 72 -25 26 -29 27 -55 18z"/>
<path d="M542 1874 c-43 -30 -18 -104 36 -104 23 0 61 35 58 53 -7 36 -19 55
-39 61 -30 8 -30 8 -55 -10z"/>
<path d="M697 1879 c-68 -39 -10 -135 59 -99 32 18 34 72 2 94 -26 19 -36 19
-61 5z"/>
<path d="M831 1869 c-36 -39 -9 -99 44 -99 51 0 74 75 33 104 -30 22 -54 20
-77 -5z"/>
<path d="M993 1880 c-53 -22 -31 -110 27 -110 54 0 75 64 34 105 -17 17 -29
18 -61 5z"/>
<path d="M1132 1874 c-42 -29 -18 -104 34 -104 54 0 77 67 34 102 -27 22 -39
22 -68 2z"/>
<path d="M1275 1866 c-22 -22 -23 -29 -14 -53 12 -32 26 -43 55 -43 50 0 73
76 32 104 -31 22 -45 20 -73 -8z"/>
<path d="M1440 1883 c-17 -7 -33 -30 -37 -56 -4 -23 32 -57 60 -57 51 0 74 63
37 100 -20 20 -33 23 -60 13z"/>
<path d="M1570 1870 c-25 -25 -26 -62 -2 -83 25 -23 58 -21 82 3 26 26 25 54
-2 80 -28 25 -52 26 -78 0z"/>
<path d="M1717 1872 c-35 -38 -12 -102 37 -102 26 0 53 19 57 40 6 30 -11 68
-33 74 -35 9 -44 7 -61 -12z"/>
<path d="M1877 1879 c-62 -36 -18 -127 51 -105 43 14 45 83 3 105 -24 13 -31
13 -54 0z"/>
<path d="M2018 1877 c-28 -22 -33 -62 -9 -86 25 -25 49 -27 79 -5 28 19 29 57
2 84 -23 23 -47 25 -72 7z"/>
<path d="M2161 1871 c-26 -26 -27 -62 -3 -84 41 -38 110 -1 97 51 -3 15 -9 30
-13 34 -4 4 -19 10 -34 13 -19 5 -32 1 -47 -14z"/>
<path d="M2312 1874 c-32 -22 -30 -76 2 -94 64 -34 117 38 69 93 -20 21 -42
22 -71 1z"/>
<path d="M2469 1883 c-15 -4 -39 -42 -39 -62 0 -17 42 -51 64 -51 52 0 76 75
34 104 -23 16 -30 17 -59 9z"/>
<path d="M2620 1883 c-41 -15 -51 -62 -20 -93 27 -27 65 -26 84 2 21 30 20 54
-4 78 -20 20 -33 23 -60 13z"/>
<path d="M2752 1874 c-42 -29 -18 -104 34 -104 53 0 80 64 42 100 -26 24 -46
25 -76 4z"/>
<path d="M2901 1874 c-41 -29 -16 -104 35 -104 50 0 75 60 41 98 -21 23 -49
25 -76 6z"/>
<path d="M3050 1872 c-44 -35 -20 -102 35 -102 51 0 74 75 33 104 -29 20 -41
20 -68 -2z"/>
<path d="M3192 1870 c-12 -12 -22 -29 -22 -38 0 -29 29 -62 56 -62 29 0 64 32
64 60 0 25 -34 60 -58 60 -10 0 -28 -9 -40 -20z"/>
<path d="M3342 1874 c-43 -30 -17 -104 36 -104 25 0 62 32 58 52 -6 37 -19 56
-39 62 -30 8 -30 8 -55 -10z"/>
<path d="M537 1722 c-10 -10 -17 -30 -17 -45 0 -55 89 -76 106 -24 14 40 13
48 -7 68 -24 24 -61 24 -82 1z"/>
<path d="M683 1718 c-25 -29 -17 -67 19 -87 23 -13 29 -13 52 2 18 12 26 26
26 47 0 57 -59 80 -97 38z"/>
<path d="M842 1733 c-18 -7 -32 -46 -25 -71 3 -11 18 -26 34 -32 24 -10 33
-10 54 4 60 40 5 126 -63 99z"/>
<path d="M974 1715 c-31 -48 6 -103 61 -89 32 8 47 36 39 69 -12 48 -73 61
-100 20z"/>
<path d="M1127 1722 c-25 -27 -21 -69 7 -87 49 -32 107 14 87 69 -15 39 -66
49 -94 18z"/>
<path d="M1283 1732 c-6 -4 -17 -20 -22 -35 -9 -24 -8 -31 14 -53 28 -28 42
-30 73 -8 56 39 -6 133 -65 96z"/>
<path d="M1420 1720 c-39 -39 -3 -108 50 -95 49 12 66 67 32 98 -25 23 -58 21
-82 -3z"/>
<path d="M1566 1718 c-19 -27 -20 -48 -3 -71 34 -48 116 -15 102 41 -12 53
-71 70 -99 30z"/>
<path d="M1717 1722 c-35 -39 -7 -102 44 -102 26 0 61 49 53 74 -13 46 -67 61
-97 28z"/>
<path d="M1868 1727 c-33 -26 -27 -81 12 -97 40 -17 80 7 80 49 0 50 -53 77
-92 48z"/>
<path d="M2010 1720 c-32 -32 -25 -66 17 -89 30 -15 40 -14 63 9 25 25 26 62
2 83 -25 23 -58 21 -82 -3z"/>
<path d="M2157 1722 c-38 -41 -1 -110 51 -97 37 9 45 19 45 56 0 53 -61 79
-96 41z"/>
<path d="M2308 1723 c-28 -33 -29 -53 -3 -79 13 -13 33 -24 43 -24 21 0 59 39
56 58 -1 6 -2 16 -3 21 -5 38 -67 53 -93 24z"/>
<path d="M2458 1726 c-22 -16 -29 -57 -14 -77 32 -45 106 -24 106 30 0 50 -53
77 -92 47z"/>
<path d="M2599 1719 c-15 -15 -19 -28 -14 -47 8 -34 13 -39 47 -47 19 -5 32
-1 47 14 26 26 27 55 1 81 -26 26 -55 25 -81 -1z"/>
<path d="M2747 1722 c-20 -22 -22 -65 -4 -80 39 -33 90 -18 102 30 13 53 -62
90 -98 50z"/>
<path d="M2897 1722 c-22 -24 -21 -65 1 -85 26 -23 49 -21 77 7 22 22 23 29
14 53 -17 46 -62 58 -92 25z"/>
<path d="M536 1574 c-31 -31 -14 -85 31 -99 32 -9 74 34 66 66 -3 13 -10 30
-16 37 -13 17 -62 15 -81 -4z"/>
<path d="M686 1577 c-43 -31 -2 -116 48 -101 34 11 46 25 46 57 0 49 -53 74
-94 44z"/>
<path d="M824 1565 c-14 -21 -14 -30 -4 -55 12 -29 23 -34 65 -30 43 4 60 63
27 93 -28 25 -69 21 -88 -8z"/>
<path d="M977 1572 c-30 -33 -21 -69 22 -92 20 -10 27 -9 50 8 32 24 37 46 17
77 -20 30 -65 33 -89 7z"/>
<path d="M1126 1574 c-20 -20 -21 -68 -1 -84 23 -19 67 -15 86 9 17 21 16 54
-4 79 -13 17 -62 15 -81 -4z"/>
<path d="M1273 1578 c-23 -30 -22 -60 3 -85 25 -24 51 -25 82 -1 17 14 15 63
-4 82 -19 19 -68 21 -81 4z"/>
<path d="M1420 1575 c-23 -28 -20 -63 7 -85 40 -31 92 -5 93 46 0 45 -72 73
-100 39z"/>
<path d="M1567 1572 c-10 -10 -17 -28 -17 -40 0 -28 38 -62 64 -57 12 2 24 4
27 4 4 1 12 14 19 31 10 25 10 34 -4 55 -20 30 -65 34 -89 7z"/>
<path d="M1716 1574 c-46 -45 15 -125 68 -90 29 18 37 47 22 78 -15 29 -66 36
-90 12z"/>
<path d="M1860 1575 c-46 -56 30 -130 86 -84 19 15 18 64 -2 83 -20 20 -68 21
-84 1z"/>
<path d="M2004 1565 c-14 -21 -14 -30 -4 -55 7 -17 18 -30 24 -31 6 0 19 -2
28 -4 23 -4 58 31 58 59 0 54 -76 76 -106 31z"/>
<path d="M2157 1572 c-49 -54 19 -127 76 -81 28 22 31 55 6 85 -16 20 -63 17
-82 -4z"/>
<path d="M2308 1579 c-22 -12 -24 -71 -4 -88 56 -46 132 28 86 84 -14 17 -57
19 -82 4z"/>
<path d="M2450 1570 c-27 -27 -25 -46 5 -76 38 -38 95 -16 95 37 0 55 -60 79
-100 39z"/>
<path d="M560 1443 c-39 -15 -52 -69 -24 -97 42 -43 116 2 95 57 -8 21 -40 49
-53 46 -2 0 -10 -3 -18 -6z"/>
<path d="M700 1437 c-54 -28 -40 -100 20 -105 39 -4 60 16 60 59 0 42 -41 65
-80 46z"/>
<path d="M852 1439 c-35 -13 -48 -53 -28 -84 30 -45 106 -25 106 28 0 42 -40
70 -78 56z"/>
<path d="M986 1429 c-30 -24 -34 -59 -8 -82 37 -33 102 -9 102 37 0 18 -42 66
-58 66 -5 0 -21 -9 -36 -21z"/>
<path d="M1155 1442 c-26 -5 -45 -30 -45 -58 0 -53 76 -75 105 -30 28 42 -10
99 -60 88z"/>
<path d="M1290 1437 c-53 -27 -40 -99 18 -105 43 -4 62 12 62 53 0 47 -39 72
-80 52z"/>
<path d="M1425 1425 c-29 -28 -31 -42 -9 -73 29 -42 104 -18 104 34 0 25 -10
38 -37 53 -29 15 -30 15 -58 -14z"/>
<path d="M1590 1439 c-29 -12 -40 -26 -40 -55 0 -30 33 -56 66 -52 35 4 65 49
48 75 -19 30 -47 42 -74 32z"/>
<path d="M1730 1437 c-28 -14 -38 -54 -20 -87 16 -30 74 -28 95 4 19 28 7 69
-24 85 -24 13 -21 13 -51 -2z"/>
<path d="M1883 1439 c-58 -22 -45 -109 18 -109 68 0 84 90 19 112 -8 3 -25 2
-37 -3z"/>
<path d="M2028 1438 c-56 -19 -39 -108 21 -108 45 0 77 51 53 86 -14 22 -46
31 -74 22z"/>
<path d="M2174 1437 c-39 -21 -46 -63 -16 -90 28 -26 69 -21 89 9 15 23 15 29
2 52 -17 31 -49 43 -75 29z"/>
<path d="M2318 1436 c-29 -14 -36 -66 -13 -90 23 -23 71 -20 89 5 36 52 -19
113 -76 85z"/>
<path d="M2460 1432 c-42 -34 -23 -102 29 -102 43 0 63 21 59 60 -2 27 -9 36
-35 47 -27 11 -34 10 -53 -5z"/>
<path d="M541 1284 c-41 -29 -16 -104 35 -104 50 0 75 60 41 98 -21 23 -49 25
-76 6z"/>
<path d="M692 1284 c-26 -18 -29 -65 -6 -88 8 -9 28 -16 43 -16 52 0 72 79 28
107 -22 13 -43 13 -65 -3z"/>
<path d="M831 1279 c-36 -39 -8 -99 44 -99 27 0 55 29 55 56 0 51 -66 79 -99
43z"/>
<path d="M980 1280 c-38 -38 -13 -100 40 -100 52 0 78 64 40 97 -28 24 -57 26
-80 3z"/>
<path d="M1132 1284 c-27 -19 -29 -65 -4 -87 51 -47 127 20 84 73 -23 29 -52
34 -80 14z"/>
<path d="M1280 1282 c-44 -35 -20 -102 35 -102 51 0 74 75 33 104 -29 20 -41
20 -68 -2z"/>
<path d="M1427 1286 c-43 -33 -21 -106 32 -106 49 0 78 54 49 93 -18 23 -60
30 -81 13z"/>
<path d="M1570 1280 c-40 -40 -14 -100 43 -100 57 0 73 85 21 109 -34 15 -41
14 -64 -9z"/>
<path d="M1722 1284 c-57 -39 -3 -123 63 -98 42 17 36 96 -9 108 -29 8 -29 8
-54 -10z"/>
<path d="M1865 1276 c-37 -38 -13 -96 40 -96 51 0 74 75 33 104 -31 22 -45 20
-73 -8z"/>
<path d="M2010 1278 c-16 -15 -20 -27 -15 -47 12 -50 67 -68 98 -33 51 57 -27
132 -83 80z"/>
<path d="M2160 1280 c-40 -40 -13 -100 43 -100 34 0 60 38 52 73 -11 42 -65
57 -95 27z"/>
<path d="M2320 1287 c-32 -16 -40 -72 -13 -93 57 -43 126 25 81 81 -22 28 -32
30 -68 12z"/>
<path d="M2451 1274 c-14 -18 -19 -34 -15 -48 20 -68 114 -57 114 13 0 32 -13
46 -51 56 -21 5 -31 1 -48 -21z"/>
<path d="M693 1142 c-6 -4 -17 -20 -22 -35 -9 -24 -8 -31 14 -53 29 -29 45
-30 75 -6 55 45 -7 132 -67 94z"/>
<path d="M829 1129 c-24 -24 -19 -64 9 -86 23 -17 43 -16 70 3 44 31 16 104
-40 104 -10 0 -27 -9 -39 -21z"/>
<path d="M980 1130 c-11 -11 -20 -29 -20 -40 0 -11 9 -29 20 -40 11 -11 29
-20 40 -20 11 0 29 9 40 20 11 11 20 29 20 40 0 11 -9 29 -20 40 -11 11 -29
20 -40 20 -11 0 -29 -9 -40 -20z"/>
<path d="M1127 1132 c-25 -28 -21 -69 8 -88 49 -32 105 9 84 63 -17 46 -62 58
-92 25z"/>
<path d="M1283 1142 c-6 -4 -16 -19 -22 -34 -8 -22 -6 -31 10 -52 23 -30 45
-33 77 -10 56 39 -6 133 -65 96z"/>
<path d="M1420 1128 c-26 -28 -25 -52 2 -78 26 -24 46 -25 76 -4 28 19 29 57
2 84 -26 26 -54 25 -80 -2z"/>
<path d="M1572 1134 c-28 -19 -29 -57 -2 -84 32 -32 66 -25 89 17 15 30 14 40
-9 63 -24 24 -48 25 -78 4z"/>
<path d="M1722 1134 c-30 -20 -30 -68 0 -88 31 -22 45 -20 73 8 22 22 23 29
14 53 -17 45 -47 55 -87 27z"/>
<path d="M1867 1136 c-39 -30 -15 -105 33 -106 29 0 60 30 60 59 0 51 -53 77
-93 47z"/>
<path d="M2010 1130 c-26 -26 -25 -50 0 -78 26 -27 54 -28 80 -2 27 27 26 65
-2 84 -30 21 -54 20 -78 -4z"/>
<path d="M2162 1134 c-30 -20 -30 -68 0 -88 31 -22 54 -20 78 6 25 28 26 52 0
78 -24 24 -48 25 -78 4z"/>
<path d="M2312 1134 c-31 -21 -30 -69 3 -90 31 -20 53 -15 77 17 17 23 18 30
8 50 -23 42 -50 50 -88 23z"/>
<path d="M2455 1136 c-24 -17 -23 -73 2 -92 38 -28 93 -1 93 47 0 47 -56 74
-95 45z"/>
<path d="M2599 1129 c-20 -20 -20 -61 0 -82 18 -18 61 -17 81 3 25 25 26 54 0
80 -26 26 -55 25 -81 -1z"/>
<path d="M977 982 c-49 -54 19 -127 76 -81 28 22 31 55 6 85 -16 20 -63 17
-82 -4z"/>
<path d="M1127 982 c-53 -59 24 -132 79 -76 25 25 26 51 2 82 -15 18 -63 15
-81 -6z"/>
<path d="M1271 981 c-12 -12 -17 -27 -14 -45 14 -70 113 -66 113 5 0 54 -60
79 -99 40z"/>
<path d="M1416 978 c-23 -32 -20 -54 11 -77 40 -33 93 -7 93 44 0 51 -75 74
-104 33z"/>
<path d="M1567 982 c-29 -32 -15 -88 23 -92 42 -6 58 1 70 30 10 25 10 34 -4
55 -20 30 -65 34 -89 7z"/>
<path d="M1716 984 c-19 -19 -21 -68 -3 -82 6 -5 22 -13 34 -16 32 -10 77 35
68 67 -14 45 -68 62 -99 31z"/>
<path d="M1866 987 c-43 -31 -2 -116 48 -101 34 10 46 25 46 55 0 51 -52 76
-94 46z"/>
<path d="M2009 984 c-32 -39 -12 -89 40 -99 47 -9 80 64 45 99 -20 21 -68 20
-85 0z"/>
<path d="M2157 982 c-29 -31 -19 -78 18 -92 34 -13 62 -2 75 31 25 60 -50 109
-93 61z"/>
<path d="M2306 984 c-20 -19 -21 -68 -2 -83 40 -34 99 -8 99 44 0 49 -63 74
-97 39z"/>
<path d="M2452 988 c-24 -31 -23 -57 2 -82 25 -26 55 -28 82 -5 19 15 18 64
-2 83 -19 19 -68 21 -82 4z"/>
<path d="M2596 978 c-31 -44 -7 -91 45 -91 35 0 59 24 59 58 0 51 -75 74 -104
33z"/>
<path d="M2747 982 c-35 -39 -3 -106 45 -97 24 5 58 39 58 59 0 48 -71 74
-103 38z"/>
<path d="M998 848 c-31 -11 -43 -37 -32 -70 14 -45 57 -54 96 -21 14 13 17 34
9 74 -3 15 -48 25 -73 17z"/>
<path d="M1142 849 c-42 -16 -40 -94 3 -105 37 -9 59 -1 73 29 12 24 11 31 -2
51 -17 27 -43 36 -74 25z"/>
<path d="M1290 847 c-49 -25 -41 -94 12 -108 36 -9 68 18 68 58 0 45 -40 70
-80 50z"/>
<path d="M1443 849 c-12 -4 -27 -18 -33 -30 -25 -46 29 -98 77 -76 65 29 22
131 -44 106z"/>
<path d="M1584 847 c-25 -13 -34 -27 -34 -53 0 -47 71 -72 103 -36 21 23 21
41 2 69 -18 26 -46 34 -71 20z"/>
<path d="M1728 846 c-26 -13 -35 -54 -18 -86 18 -33 80 -24 98 13 12 24 11 31
-2 51 -18 29 -47 37 -78 22z"/>
<path d="M1883 849 c-57 -21 -48 -100 13 -112 49 -9 83 55 52 95 -18 21 -39
27 -65 17z"/>
<path d="M2011 836 c-12 -12 -21 -32 -21 -43 0 -29 43 -62 73 -56 51 10 61 93
14 109 -39 13 -45 12 -66 -10z"/>
<path d="M2174 847 c-39 -21 -46 -63 -16 -90 28 -26 69 -21 89 9 15 23 15 29
2 52 -17 31 -49 43 -75 29z"/>
<path d="M2319 846 c-18 -8 -25 -21 -27 -49 -3 -34 0 -39 30 -52 27 -11 37
-11 52 -1 63 41 12 135 -55 102z"/>
<path d="M2473 849 c-56 -21 -48 -100 12 -111 33 -7 65 24 65 62 0 36 -42 63
-77 49z"/>
<path d="M2764 847 c-60 -33 -37 -112 30 -105 42 4 65 48 42 82 -18 28 -46 37
-72 23z"/>
<path d="M2917 852 c-28 -6 -48 -54 -34 -82 27 -54 110 -36 110 23 0 44 -32
69 -76 59z"/>
<path d="M2596 828 c-23 -32 -20 -54 10 -77 53 -42 122 27 80 82 -19 25 -71
22 -90 -5z"/>
<path d="M838 696 c-28 -21 -33 -61 -9 -85 53 -53 132 12 88 73 -16 22 -57 28
-79 12z"/>
<path d="M992 697 c-51 -24 -30 -107 28 -107 48 0 75 54 46 93 -17 22 -44 28
-74 14z"/>
<path d="M1132 694 c-43 -30 -17 -104 36 -104 28 0 61 33 57 57 -2 10 -4 23
-4 29 -1 10 -43 34 -59 34 -4 0 -18 -7 -30 -16z"/>
<path d="M1274 689 c-35 -39 -11 -99 40 -99 29 0 43 11 55 42 20 53 -56 100
-95 57z"/>
<path d="M1425 688 c-21 -16 -25 -26 -20 -47 10 -38 24 -51 55 -51 49 0 76 54
48 93 -20 26 -54 28 -83 5z"/>
<path d="M1590 703 c-40 -14 -53 -69 -22 -96 52 -47 131 19 89 74 -14 19 -46
29 -67 22z"/>
<path d="M1722 694 c-27 -19 -29 -64 -4 -87 54 -49 127 19 81 76 -23 31 -45
34 -77 11z"/>
<path d="M1865 690 c-23 -25 -22 -70 1 -87 42 -30 94 -5 94 46 0 33 -14 48
-52 55 -18 3 -32 -2 -43 -14z"/>
<path d="M2022 698 c-51 -25 -30 -108 27 -108 56 0 80 61 39 100 -24 22 -33
23 -66 8z"/>
<path d="M2160 690 c-39 -39 -14 -100 42 -100 50 0 72 59 36 97 -26 28 -52 29
-78 3z"/>
<path d="M2312 694 c-43 -30 -20 -104 32 -104 33 0 59 23 59 54 0 49 -52 77
-91 50z"/>
<path d="M2457 692 c-26 -30 -28 -57 -7 -80 39 -42 100 -19 100 37 0 48 -63
77 -93 43z"/>
<path d="M2619 703 c-9 -2 -22 -15 -30 -29 -29 -55 45 -111 92 -68 46 41 0
113 -62 97z"/>
<path d="M2750 690 c-25 -25 -26 -62 -2 -83 49 -44 117 3 92 63 -7 17 -15 30
-19 31 -3 0 -16 2 -29 5 -13 2 -30 -4 -42 -16z"/>
<path d="M2910 697 c-50 -25 -32 -107 24 -107 56 0 80 66 36 102 -26 21 -28
21 -60 5z"/>
<path d="M842 553 c-21 -8 -33 -50 -22 -78 21 -55 110 -35 110 25 0 43 -45 70
-88 53z"/>
<path d="M993 550 c-55 -22 -32 -110 28 -106 55 4 77 58 39 96 -22 22 -33 23
-67 10z"/>
<path d="M1132 544 c-31 -21 -30 -69 2 -89 51 -33 112 16 85 68 -22 40 -50 47
-87 21z"/>
<path d="M1271 534 c-12 -15 -21 -30 -21 -34 0 -19 44 -60 64 -60 52 0 76 75
34 104 -32 23 -54 20 -77 -10z"/>
<path d="M1420 540 c-34 -34 -8 -100 40 -100 30 0 60 30 60 59 0 32 -13 46
-52 56 -20 5 -32 1 -48 -15z"/>
<path d="M1570 540 c-11 -11 -20 -29 -20 -40 0 -26 34 -60 60 -60 11 0 29 9
40 20 11 11 20 29 20 40 0 11 -9 29 -20 40 -11 11 -29 20 -40 20 -11 0 -29 -9
-40 -20z"/>
<path d="M1717 542 c-25 -28 -21 -69 8 -88 31 -20 53 -15 77 17 17 23 18 30 8
50 -23 44 -65 53 -93 21z"/>
<path d="M1861 534 c-12 -15 -21 -31 -21 -36 0 -16 49 -58 68 -58 46 0 69 72
34 103 -27 24 -58 21 -81 -9z"/>
<path d="M2010 540 c-11 -11 -20 -29 -20 -40 0 -26 34 -60 60 -60 11 0 29 9
40 20 11 11 20 29 20 40 0 11 -9 29 -20 40 -11 11 -29 20 -40 20 -11 0 -29 -9
-40 -20z"/>
<path d="M2162 544 c-28 -19 -29 -57 -2 -84 35 -35 82 -18 95 32 5 19 1 32
-14 47 -25 25 -49 27 -79 5z"/>
<path d="M2312 544 c-45 -31 -15 -109 39 -101 13 2 32 15 42 29 16 22 17 29 7
49 -23 42 -50 50 -88 23z"/>
<path d="M2456 544 c-37 -26 -12 -104 34 -104 29 0 60 30 60 59 0 50 -53 75
-94 45z"/>
<path d="M2600 540 c-11 -11 -20 -29 -20 -40 0 -26 34 -60 60 -60 11 0 29 9
40 20 11 11 20 29 20 40 0 11 -9 29 -20 40 -11 11 -29 20 -40 20 -11 0 -29 -9
-40 -20z"/>
<path d="M2752 544 c-43 -30 -16 -104 38 -104 47 0 73 67 39 101 -23 23 -47
24 -77 3z"/>
<path d="M842 403 c-18 -7 -32 -46 -25 -71 6 -23 55 -45 79 -35 8 3 19 14 24
24 30 54 -19 106 -78 82z"/>
<path d="M977 392 c-23 -25 -21 -57 4 -81 21 -20 28 -20 66 -7 53 17 31 106
-26 106 -15 0 -35 -8 -44 -18z"/>
<path d="M1127 392 c-41 -45 0 -114 55 -93 34 13 48 34 43 62 -9 47 -67 65
-98 31z"/>
<path d="M1283 402 c-6 -4 -17 -20 -22 -35 -9 -24 -8 -31 13 -52 39 -39 96
-17 96 36 0 46 -49 75 -87 51z"/>
<path d="M1416 392 c-11 -13 -14 -28 -10 -50 14 -69 114 -59 114 11 0 50 -70
76 -104 39z"/>
<path d="M1567 392 c-23 -25 -21 -58 3 -82 24 -24 65 -20 86 7 44 58 -41 128
-89 75z"/>
<path d="M1712 390 c-26 -43 -10 -86 37 -95 50 -9 87 72 45 102 -27 19 -67 16
-82 -7z"/>
<path d="M1868 398 c-30 -24 -31 -56 -4 -82 39 -40 96 -19 96 35 0 50 -53 77
-92 47z"/>
<path d="M2004 385 c-28 -43 6 -98 56 -90 48 9 67 67 32 98 -28 25 -69 21 -88
-8z"/>
<path d="M2157 392 c-49 -54 19 -127 76 -81 31 23 34 45 11 77 -19 27 -64 29
-87 4z"/>
<path d="M2306 394 c-20 -19 -21 -68 -2 -83 40 -34 99 -8 99 44 0 49 -63 74
-97 39z"/>
<path d="M2450 390 c-35 -35 0 -104 47 -95 36 6 53 24 53 56 0 55 -60 79 -100
39z"/>
<path d="M2596 388 c-31 -44 -7 -91 45 -91 35 0 59 24 59 58 0 51 -75 74 -104
33z"/>
<path d="M1883 259 c-28 -10 -41 -35 -35 -65 14 -73 112 -57 112 18 0 34 -43
60 -77 47z"/>
<path d="M2166 249 c-47 -37 -25 -99 34 -99 21 0 35 8 47 26 15 23 15 29 2 52
-21 37 -52 45 -83 21z"/>
<path d="M2312 252 c-24 -16 -29 -51 -12 -83 13 -23 72 -26 90 -4 16 19 16 61
1 79 -17 21 -54 24 -79 8z"/>
<path d="M2467 258 c-55 -30 -35 -108 28 -108 39 0 58 24 53 67 -4 32 -53 57
-81 41z"/>
<path d="M1413 234 c-15 -24 -15 -29 -2 -53 28 -50 109 -34 109 23 0 55 -76
76 -107 30z"/>
<path d="M1562 240 c-27 -43 -3 -90 46 -90 32 0 62 29 62 61 0 44 -84 67 -108
29z"/>
<path d="M1718 249 c-22 -12 -24 -65 -4 -85 19 -18 70 -18 85 0 47 56 -17 123
-81 85z"/>
<path d="M2006 238 c-21 -29 -20 -40 4 -70 33 -42 99 -16 100 39 0 51 -75 73
-104 31z"/>
<path d="M2597 242 c-21 -23 -21 -41 -1 -70 30 -43 104 -18 104 36 0 48 -70
71 -103 34z"/>
<path d="M1572 100 c-42 -39 -17 -100 41 -100 26 0 57 31 57 58 0 17 -45 62
-63 62 -7 0 -23 -9 -35 -20z"/>
</g>
</svg>
